<?xml version="1.0" encoding="UTF-8"?>
<svg width="24px" height="24px" viewBox="0 0 24 24" version="1.1" xmlns="http://www.w3.org/2000/svg" xmlns:xlink="http://www.w3.org/1999/xlink">
    <title>Icon — Facebook</title>
    <g id="Icon-—-Facebook" stroke="none" stroke-width="1" fill="none" fill-rule="evenodd">
        <path d="M24,12 C24,5.37359621 18.6264038,0 12,0 C5.37359621,0 0,5.37359621 0,12 C0,18.6264038 5.37359621,24 12,24 C12.0704956,24 12.140625,23.9985352 12.2109375,23.9972534 L12.2109375,14.6557617 L9.63281252,14.6557617 L9.63281252,11.6511841 L12.2109375,11.6511841 L12.2109375,9.44018557 C12.2109375,6.87597656 13.7763062,5.48034666 16.0636597,5.48034666 C17.1589966,5.48034666 18.1005249,5.56201172 18.375,5.59844972 L18.375,8.27838136 L16.7977295,8.27838136 C15.5533447,8.27838136 15.3123779,8.869812 15.3123779,9.7375488 L15.3123779,11.6511841 L18.2878418,11.6511841 L17.9000244,14.6557617 L15.3123779,14.6557617 L15.3123779,23.536377 C20.3281861,22.0984497 24,17.477417 24,12 Z" id="Path" fill="#888888" fill-rule="nonzero"></path>
    </g>
</svg>