<svg id="globe_with_satellites" xmlns="http://www.w3.org/2000/svg" xmlns:xlink="http://www.w3.org/1999/xlink" viewBox="0 0 60 60">
  <defs>
    <style>
      .cls-1 {
        fill: #fff;
      }
      .clip_color {
        fill: rgba(0,0,0,0);
      }
      #globe #globe_map {
        animation: pan 6s linear 0s infinite;
      }
      @keyframes pan {
        from {
          transform: translateX(-104%);
        }
        to {
          transform: translateX(0);
        }
      }
      #satellite_a_group {
        transform-origin: 50% 50%;
        transform: rotateZ(59deg);
      }
      #satellite_a_group #satellite_a {
        transform-origin: 50% 50%;
        transform: rotateX(70deg) rotateZ(-180deg);
        animation-name: orbit_a;
        animation-duration: 3s;
        animation-fill-mode: both;
        animation-timing-function: linear;
        animation-iteration-count: infinite;
      }
      @keyframes orbit_a {
        0% {
          transform: rotateX(70deg) rotateZ(0deg);
        }
        100% {
          transform: rotateX(70deg) rotateZ(-360deg);
        }
      }
      #satellite_b_group {
        transform-origin: 50% 50%;
        transform: rotateZ(-25deg);
      }
      #satellite_b_group #satellite_b {
        transform-origin: 50% 50%;
        transform: rotateX(70deg) rotateZ(-180deg);
        animation-name: orbit_b;
        animation-duration: 3s;
        animation-fill-mode: both;
        animation-timing-function: linear;
        animation-iteration-count: infinite;
      }
      @keyframes orbit_b {
        0% {
          transform: rotateX(70deg) rotateZ(-90deg);
        }
        100% {
          transform: rotateX(70deg) rotateZ(-450deg);
        }
      }
      #globe_with_satellites_group {
        transform-origin: 50% 50%;
        transform: rotateZ(3deg);
      }
    </style>
    <circle id="circle_clip" class="clip_color" cx="30" cy="30" r="16"/>
    <clipPath id="globe_clip"><use xlink:href="#circle_clip"/></clipPath>
    <path id="path_clip" class="clip_color" d="M31-15v29A16,16,0,0,1,46,30H14A16,16,0,0,1,29,14.05V-15a45,45,0,1,0,2,0Z"/>
    <clipPath id="satellite_clip"><use xlink:href="#path_clip"/></clipPath>
  </defs>
  <title>globe_with_satellites</title>
  <g id="globe_with_satellites_group">
    <g id="globe" clip-path="url(#globe_clip)">
      <use xlink:href="#circle_clip"/>
      <path id="globe_map" class="cls-1" d="M96,14.05l.5.06c.32.05.41,0,.71.05a1.73,1.73,0,0,0,.66.05h.75c.39,0,.73-.21.87-.1s.21.1.66.14.64,0,.82,0a8.56,8.56,0,0,0,.89,0,6,6,0,0,0,.71,0c.14,0,.27-.18.46,0s.43-.05.45.15.37.05,0,.21a1.67,1.67,0,0,0-.54.34c-.25.21.16.41-.35.6s-.59-.12-.72.2,0,.41,0,.57-.09.18-.25.32-.16,0-.55.09a4.3,4.3,0,0,1-.79.16,2.66,2.66,0,0,0-.62.18c-.11,0,.18.14-.37.3s-.7.14-.86.34a2.25,2.25,0,0,0-.21.39c-.11.14-.43.68-.59.55s-.25-.12-.37-.25a4.13,4.13,0,0,1-.29-.44,1.3,1.3,0,0,1-.14-.54c0-.16-.27-.55,0-.48a.76.76,0,0,0,.5,0c.09,0,.16-.25.16-.25a1.34,1.34,0,0,0-.11-.45c-.09-.16,0-.3-.16-.46a2.34,2.34,0,0,0-.32-.3c-.18-.16-.14-.25-.43-.27S96,15,96,15.05s-.46-.18-.09-.21a4.43,4.43,0,0,1,.73,0s.48-.21.32-.25.25-.28-.14-.19l-.91.21a3,3,0,0,0-.64.14c-.28.09-.6,0-.75.25s0,.2-.16.18.13-.18-.26,0-.27.16-.45.11a1.1,1.1,0,0,1-.32-.13s.25,0-.11,0-.35,0-.48-.18,0-.16,0-.21a.34.34,0,0,0,.14-.16l1.07-.13a1.17,1.17,0,0,0,.57-.14c.18-.14,0-.14.57-.25a1.79,1.79,0,0,0,.32-.07H33.52a4.84,4.84,0,0,1,.5.07c.32,0,.41,0,.71,0a1,1,0,0,0,.64.12h.75c.39,0,.73-.21.87-.09s.2.09.66.13.64,0,.84,0a8.58,8.58,0,0,0,.89,0,4.24,4.24,0,0,0,.71,0c.14,0,.27-.18.46,0s.43-.05.45.16.37,0,0,.2a1.49,1.49,0,0,0-.55.35c-.25.2.16.41-.34.59s-.6-.12-.73.2,0,.41,0,.57-.09.19-.25.32-.16,0-.55.09a3.81,3.81,0,0,1-.79.16,2.25,2.25,0,0,0-.62.19c-.11,0,.18.13-.36.29s-.71.14-.87.34-.11.26-.21.39-.43.69-.59.55-.25-.11-.36-.25a3.83,3.83,0,0,1-.3-.43,1.59,1.59,0,0,1-.14-.55c0-.16-.27-.55,0-.48a.78.78,0,0,0,.5,0c.1,0,.16-.25.16-.25a1.38,1.38,0,0,0-.11-.46c-.09-.16,0-.3-.16-.46a2.31,2.31,0,0,0-.32-.29c-.18-.16-.14-.25-.43-.28s-.37-.11-.48-.09-.46-.13-.09-.16a4.43,4.43,0,0,1,.73,0s.48-.21.32-.26.25-.27-.14-.18l-.91.21a3.25,3.25,0,0,0-.64.13c-.27.1-.59.07-.75.25s0,.21-.16.19.13-.19-.25,0-.28.16-.46.11a1,1,0,0,1-.32-.14s.25,0-.11,0-.35,0-.48-.18,0-.16,0-.21a.34.34,0,0,0,.14-.16l1.07-.14a1.24,1.24,0,0,0,.57-.13c.18-.16,0-.16.57-.25l.32-.07H14V46H138.78V14.05ZM29.8,15.85,30,16a4.49,4.49,0,0,1,.54-.14c.41-.09.44,0,.64.12s.18.13.6.18.11.32.11.32l.34.34.12.34-.12.21a.81.81,0,0,0-.32-.14c-.11,0,0,0,.16.41s-.29,0-.29,0-.3.09-.05.34-.25.25-.41.16-.5-.21-.71-.34-.09-.25.18-.32a.67.67,0,0,0,.39-.25c.09-.09,0-.32-.16-.64s-.09-.09-.7-.3-.44.05-.6.14-.2-.21-.29-.3S29.69,16,29.8,15.85Zm-6,.32c.16-.16.59-.55.75-.44s.39-.06.59.09a3,3,0,0,0,.57.42c.16,0,.35-.14.51,0s.73-.41.61,0,.14.48-.16.5-.61.25-.75.16a.38.38,0,0,0-.46,0c-.2.12-.11.12-.34,0s-.3,0-.34,0-.21,0-.18-.3.11-.21-.05-.21a.77.77,0,0,1-.41,0A.47.47,0,0,0,23.83,16.17Zm.39,14.91-.28,0s-.2-.18-.25-.21a.26.26,0,0,1-.11-.2c0-.12,0-.12,0-.25s-.14-.14-.2-.23a1.92,1.92,0,0,0-.19-.23c-.06-.09-.11,0-.18-.05a.44.44,0,0,0-.18,0,.36.36,0,0,1-.27-.07c-.1-.07-.19,0-.28-.13s-.14-.09-.2-.16-.16-.07-.21-.16-.18,0-.23,0-.2.07-.2.07a1,1,0,0,1-.21,0,1.43,1.43,0,0,0-.2-.05l-.3-.06-.27-.16a.94.94,0,0,1-.28-.16c0-.07-.29-.16-.29-.21a1.45,1.45,0,0,0-.28-.14.72.72,0,0,1,0-.34c0-.16.07-.11,0-.27s-.11-.14-.21-.34a2.86,2.86,0,0,0-.27-.51c-.16-.25-.09,0-.16-.18s-.2-.43-.25-.52a.6.6,0,0,1-.11-.37c0-.2-.05-.13-.19-.41s-.2,0-.27,0,0,.21.05.39a.66.66,0,0,0,.16.34c.11.16,0,.3.09.39s0,.21.07.3a2.45,2.45,0,0,1,0,.38v0a.15.15,0,0,0,0-.06.88.88,0,0,0-.09-.21c-.07-.14-.12-.16-.12-.16l-.11-.23a.81.81,0,0,1-.14-.39A1,1,0,0,0,17.9,26a5.6,5.6,0,0,1,0-.64c0-.09-.13-.2-.27-.3s-.18-.09-.25-.2a2.36,2.36,0,0,1-.2-.57c0-.21,0-.48,0-.75s.07-.21.2-.35a3.91,3.91,0,0,0,.3-.45A4.8,4.8,0,0,1,18,22.3a3.68,3.68,0,0,0,.27-.41l.09-.32a.66.66,0,0,0,.23-.07,4.11,4.11,0,0,0-.16-1c0-.16,0-.16,0-.22a2.71,2.71,0,0,0,0-.89c0-.21-.11-.12-.2-.23s-.16.09-.21-.12-.18-.11-.7-.22-.3-.05-.46-.07,0,0-.07,0a.33.33,0,0,1-.2-.05c-.12,0-.28.05-.41.12s-.14,0-.26.11-.09.05-.11-.05.09-.16-.07-.11-.2.16-.32.23-.29.09-.45.18-.3,0-.53.11-.13,0,0-.11-.09,0-.07-.07-.18-.11-.34-.16,0-.07,0-.11,0-.05,0-.25.12-.09.3-.28.16-.09.36-.11l.51,0a.84.84,0,0,0,.36-.29c.14-.19,0-.09-.11-.12a.23.23,0,0,0-.23.14,1.29,1.29,0,0,1-.34-.25c-.05-.07.11-.18.2-.23a.85.85,0,0,1,.5,0l.23.07s.16-.12.14-.19a.32.32,0,0,0-.14-.23c-.13-.09.3-.2.39-.25a1.33,1.33,0,0,1,.52-.06c.1,0,.55-.23.62-.19a3.5,3.5,0,0,0,.73,0c.07,0,.66-.12,1-.14s.48,0,.8,0,.09.11.25.23.11.16.18.18,0,0,.05.09.36.09.52.07.59-.2.89-.25.71-.07.84-.09a2,2,0,0,1,.53.11l1.21,0s0,.16,0,.16a1.06,1.06,0,0,0,.32.09c.16,0,.29.09.36.07s.21.23.21.18.16-.21.27-.3.25,0,.39,0a4.94,4.94,0,0,1,.77,0c.16,0,.3.11.37.11s.11,0,.2.12.55-.3.66-.64.3-.23.46-.3.07.16.09.32,0,.11.14.14l.11,0a1.09,1.09,0,0,0,0,.23c0,.09,0,.07.25,0s.11,0,.43-.14.18-.18.28-.16.16-.05.13.14-.23.25-.36.31-.34.05-.48.12a1.07,1.07,0,0,0-.43.27c-.14.14-.14,0-.14,0a.41.41,0,0,0-.21-.14c-.07,0,0,.21,0,.21a.94.94,0,0,1-.09.25c-.07.09-.3.06-.41.11s-.55.23-.8.32a2.5,2.5,0,0,0-.78.62.8.8,0,0,0,0,.43c.05.11.39.23.39.3a7,7,0,0,0,1.12.25l-.16.16s-.11.38,0,.5a.49.49,0,0,0,.45.11c.12,0,.21-.39.21-.52s.23-.16.23-.16a1.66,1.66,0,0,1,.54-.21c.3,0,.05-.2.1-.75s.16-.21.22-.25a5.75,5.75,0,0,0,.53-.48c.07-.11.32.05.43.05s.39,0,.46.2.11.11,0,.23.09.39.21.34.61-.3.71-.36.11,0,.18,0,0,.23,0,.23a.92.92,0,0,1-.05.36c0,.25,0,.21.09.28s0,.09.21.31.09,0,.16,0,.16.14.25.21-.07.23-.07.23a1,1,0,0,0-.18.18,4.55,4.55,0,0,1-.41.29c-.12.1-.34.05-.5.05a7.1,7.1,0,0,0-1.14.09,3.27,3.27,0,0,0-.6.21c-.07,0-.11.2,0,.18s.23,0,.3,0a1.31,1.31,0,0,1,.62-.05c.16.07-.1.14-.3.3s.07.16.25.2.16.05.43-.06.12-.05.21,0,0,.16,0,.16,0,0-.29.11a1.18,1.18,0,0,1-.3.05c-.11,0-.11.07-.46.34s-.29.05-.2-.14-.16,0,.2-.27,0-.05-.16,0a3.33,3.33,0,0,1-.52.21c-.09,0-.32.34-.5.5s-.18.18-.18.34-.3.07-.35.07-.38.16-.36.25-.23.23-.23.23-.23.18-.25.25-.37.32-.37.45a.32.32,0,0,1-.13.21l-.41.27c-.12.07-.64.44-.87.6s-.21.22-.18.36a2.29,2.29,0,0,0,.07.62c.11.38-.05.48-.05.48l-.16.2c0,.05-.18-.23-.18-.23a1.37,1.37,0,0,1-.09-.52c0-.32-.07-.14-.07-.21s-.09,0-.07-.11-.16-.07-.3-.18-.2,0-.22-.07-.28,0-.28-.05-.13,0-.29.25-.16.14-.26.14-.25.05-.29-.14-.28,0-.37,0a2.71,2.71,0,0,0-.32.07,1.27,1.27,0,0,0-.32.21c-.06.07-.34.16-.38.22s-.12.26-.09.3-.21.41-.19.5-.18.46-.18.6a1.8,1.8,0,0,0,.11.52,1.62,1.62,0,0,0,.55.34,2.54,2.54,0,0,0,.37.05,1.28,1.28,0,0,1,.32-.14c.11,0,.2-.27.29-.48s.07-.09.19-.13a.42.42,0,0,1,.38,0c.12.07.05.09.05.14a4.53,4.53,0,0,1-.21.55,2.65,2.65,0,0,0-.22.63,1.23,1.23,0,0,1,.38-.06,1.45,1.45,0,0,1,.55.09c.11.07,0,.09,0,.16A1.65,1.65,0,0,1,24,30a1.92,1.92,0,0,0,0,.55.27.27,0,0,0,.09.21,1.43,1.43,0,0,0,.3.25.24.24,0,0,1,.14.11l.11.18-.23-.06Zm10.6,3.77a1.2,1.2,0,0,1-.27.54c-.12.07-.12.16-.18.26s0-.1-.14.15-.07.3-.14.53,0,0-.07.23,0,.39-.07.64,0,.27-.06.45.09-.09-.07.32-.18.39-.23.57,0,.05-.18.14a.92.92,0,0,1-.32.14l-.62.16c-.09,0-.45.13-.34.34s.11.25,0,.52-.27.37-.27.48a1.69,1.69,0,0,1-.09.34c0,.09.15-.09-.05.19s-.23.2-.3.36,0,0-.07.16a.55.55,0,0,1-.25.18s0,.09,0,.05,0,0-.32-.05-.3-.25-.34-.11,0,.2.18.32.43.16.36.29l-.11.21c0,.07.07,0,0,.07s-.2.29-.25.29-.09.1-.16.05-.25-.16-.29-.09-.12-.09-.09.16,0,.39,0,.45a.58.58,0,0,1-.3,0l0-.09-.12,0s0,.2.05.25.07.07.16.18a.41.41,0,0,1,0,.3s0,0-.1.14a.57.57,0,0,0-.13.2c0,.05-.12.3,0,.27s.3-.11.3.19.07.2,0,.41-.16.2-.19.39a.52.52,0,0,0,.05.29c0,.12.11,0,0,.12a1.1,1.1,0,0,1-.37,0c-.11-.07-.39-.21-.48-.28a4.09,4.09,0,0,1-.36-.45l-.21-.39s-.23-.3-.18-.39.16-.18.16-.23.11-.2,0-.25-.09-.07-.14-.23,0-.29-.13-.34-.12-.27-.21-.3-.13-.13-.13-.13l-.12-1.46s0-.66-.07-.8.05-.46,0-.71,0-.59-.05-.7a6.51,6.51,0,0,0,0-.71c-.05-.3.2-.64,0-.75s-.05-.28-.23-.28a.79.79,0,0,1-.46-.2c-.16-.12-.45-.37-.54-.46s-.39-.32-.46-.39-.18-.38-.25-.45-.11-.37-.21-.53S25,35,25,35s-.44-.52-.44-.52l0-.3s.27-.16.23-.2,0-.12-.12-.21a.26.26,0,0,1,0-.39A1.64,1.64,0,0,0,25,33l.27-.46s.21-.23.21-.39.29-.27.11-.41-.09-.27-.14-.39,0-.18.14-.29a4,4,0,0,0,.46-.5,1.9,1.9,0,0,1,.27-.05c.05,0,.14-.57.3-.2s.2.18.16.45.07.21.13.14,0,0,.12-.28.09-.43.18-.34a.43.43,0,0,0,.3.16c.16,0,.2,0,.27.14s.05,0,.34,0,.73-.11.69.07-.05.09-.07.09a.36.36,0,0,1,.16.09,1.2,1.2,0,0,0,.43.28.77.77,0,0,1,.48.22c.21.21.27.23.32.35s.14,0,.23.13.2.12.34.12,0-.12.21,0,.34.16.43.46.27.27.14.55-.44.41-.3.38.36-.11.43-.11.12,0,.21,0,.11-.07.11,0,0,0,0,.11v0s0-.13.18-.09.09-.11.34.12.25.16.35.29.18-.07.22,0,.21,0,.37,0,0-.11.3,0,.5.11.54.25.21.09.28.18.11,0,.18.09.3.1.25.21,0,.14-.07.3Zm57.46-19,.18.18a4.45,4.45,0,0,1,.55-.14c.41-.09.43,0,.63.12s.19.13.6.18.11.32.11.32l.34.34.12.34-.12.21a.81.81,0,0,0-.32-.14c-.11,0,0,0,.16.41s-.29,0-.29,0-.3.09,0,.34-.25.25-.41.16-.5-.21-.71-.34-.09-.25.19-.32a.54.54,0,0,0,.36-.25c.09-.09,0-.32-.16-.64s-.09-.09-.71-.3-.43.05-.59.14-.2-.21-.3-.3.28-.23.42-.36ZM87,15.73c.16.12.41-.09.59.09a3,3,0,0,0,.57.42c.16,0,.34-.14.5,0s.73-.41.62,0,.14.48-.16.5-.62.25-.75.16a.38.38,0,0,0-.46,0c-.2.12-.11.12-.34,0s-.3,0-.34,0-.21,0-.18-.3.11-.21,0-.21a.77.77,0,0,1-.41,0,.46.46,0,0,0-.32-.05c.14-.2.57-.57.73-.48ZM53.71,36.88a.73.73,0,0,1-.05.2,3.71,3.71,0,0,0-.07.44c0,.11-.13.25-.13.34s-.19.34-.19.39-.18.29-.16.34-.06.29,0,.48-.14.16-.14.16a.51.51,0,0,1-.3.13.36.36,0,0,0-.2,0L52.2,39s0-.38,0-.5.07-.16.16-.2a.44.44,0,0,0,.14-.37,1.11,1.11,0,0,1,0-.3,1,1,0,0,0,0-.41c0-.16.12-.11.12-.11a2.42,2.42,0,0,1,.25-.11,1.66,1.66,0,0,0,.2-.12l.37-.18a2.36,2.36,0,0,0,.25-.48l.14.39v.23Zm12.52-2.31a.49.49,0,0,1-.21.14,1.41,1.41,0,0,1-.29-.21c-.07-.11-.16-.2-.3-.41a5.39,5.39,0,0,0-.34-.54c-.07-.12-.18-.21-.23-.32a1.59,1.59,0,0,0-.27-.46c-.07,0-.09-.14-.21-.27a1.85,1.85,0,0,1-.16-.3A2.34,2.34,0,0,0,64,32l0,0a.31.31,0,0,0,.23.07c.14,0,.25.3.34.39a1.24,1.24,0,0,0,.35.29c.2.12.18-.11.45.28s.14.13.28.38a1.06,1.06,0,0,0,.27.41.48.48,0,0,1,.14.26,1,1,0,0,1,.13.27c0,.07.07.14,0,.27Zm.18-6.77c-.14-.09-.25.11-.48.46s0,.34.25.59.3.39.6.8.11.38.11.54-.41.55-.55.67-.25.22-.36.11-.21-.11-.23-.25-.16-.07-.32-.34-.21-.09-.27-.32-.16-.14-.25,0a.94.94,0,0,0-.1.62,1.18,1.18,0,0,1-.06.52s-.12-.11-.14-.32a1.34,1.34,0,0,1,0-.45c0-.23,0,0,0-.25a1.56,1.56,0,0,0-.16-.57c-.09-.3-.11-.21-.21-.26s-.2.28-.29.16-.09-.09-.09-.38-.19-.14-.39-.39-.16-.21-.21-.37a.89.89,0,0,0-.43-.48c-.11,0-.3-.09-.36-.09s-.07,0-.12,0-.3.11-.46.27-.29.3-.38.41a1.53,1.53,0,0,1-.55.34.77.77,0,0,0-.25.37,2.75,2.75,0,0,0-.23.55c0,.27.05.27.05.54a1.81,1.81,0,0,0,0,.41c0,.19-.09.21-.09.21s-.26.23-.3.25-.25.11-.28,0-.13-.14-.13-.3-.12-.2-.12-.41-.11-.13-.13-.34a12.3,12.3,0,0,0-.5-1.16c-.1-.23,0-.14,0-.48s-.16-.3-.12-.43-.14-.05-.18,0-.27.2-.41.06-.12-.18-.23-.29a1.08,1.08,0,0,0-.32-.25c-.18-.12-.2-.3-.27-.3a1.93,1.93,0,0,1-.37-.16l-.39,0-.34,0a3,3,0,0,1-.54-.05c-.23,0-.23,0-.32-.09s-.3-.11-.32-.25-.07-.05-.16-.09-.12,0-.16,0-.21,0-.44-.05-.32-.14-.54-.3-.37-.2-.46-.43-.21.18,0,.46a.85.85,0,0,1,.14.38c0,.12.07.12.14.39s.2.16.32.34.23,0,.5,0,.16-.12.43-.39.12,0,.25.23a1.14,1.14,0,0,0,.3.39c.18.18.25.13.37.25s-.07.27-.21.43-.21.18-.25.3a1.21,1.21,0,0,1-.39.45,4.79,4.79,0,0,0-.39.35,5.89,5.89,0,0,1-.64.27,7.22,7.22,0,0,0-.7.41l-.44.11s-.31-.09-.34-.16a2,2,0,0,1-.18-.61c0-.23-.34-.59-.37-.71a4.26,4.26,0,0,0-.34-.43,5.28,5.28,0,0,1-.27-.46c0-.07-.11-.25-.21-.5s-.45-.59-.45-.66-.21-.27-.28-.27a1.13,1.13,0,0,0-.2,0,2.21,2.21,0,0,1-.28-.23,1.32,1.32,0,0,0,.12.3,8.71,8.71,0,0,1,.5,1.05c0,.16.11.2.16.39s.11.2.23.54.18.23.27.46.12.18.28.36.13.07.29.3.23.3.34.48a1.74,1.74,0,0,1,.21.57c0,.25.18.07.34.11a2.18,2.18,0,0,1,.8,0c.52,0,.34,0,.41,0s.3,0,.32-.09a4.5,4.5,0,0,1-.18.8,3.88,3.88,0,0,1-.23.37s-.14.18-.16.22-.27.39-.39.57a1.46,1.46,0,0,1-.43.41,2.08,2.08,0,0,0-.34.46,5.77,5.77,0,0,1-.48.62s-.23.29-.3.36-.18.25-.18.32-.05.3,0,.39.1.45.21.73,0,.2.07.52a3,3,0,0,1,0,.41s-.11.3-.11.39-.27.27-.39.34-.13.14-.23.19a2.38,2.38,0,0,0-.36.38,1.1,1.1,0,0,0-.21.55c0,.27.05.09.07.14s0,.29.05.45-.05.09-.12.12-.11.13-.2.18a.65.65,0,0,0-.3.39c-.09.23,0,.13-.11.2s-.07.14-.12.21-.06.2-.2.25-.23.23-.34.32-.09.09-.25.23a2.86,2.86,0,0,0-.3.29c-.09.09-.18.16-.25.12s-.21.11-.3.11-.18.12-.27.12a.75.75,0,0,1-.3,0c-.11,0-.25.11-.32.11s-.27-.11-.27-.11l-.14-.26a4,4,0,0,1-.09-.5,1.28,1.28,0,0,0-.14-.29c0-.14,0-.1-.11-.19l-.25-.29c-.12-.12,0-.14,0-.21a2.46,2.46,0,0,0-.07-.29,1.21,1.21,0,0,1,0-.39,2.27,2.27,0,0,0,0-.3c0-.14-.12-.18-.12-.3a1.45,1.45,0,0,0-.16-.43,6,6,0,0,0-.29-.55c-.14-.18,0-.18,0-.36a.94.94,0,0,1,.09-.43l.12-.16.16-.3,0-.11a2.6,2.6,0,0,0,0-.3.51.51,0,0,0-.12-.3c0-.09,0-.11,0-.23s0-.11,0-.29-.11-.21-.18-.37a.85.85,0,0,1-.12-.36,1.29,1.29,0,0,0-.2-.39,1.8,1.8,0,0,0-.32-.34c-.16-.14-.09-.21-.09-.21a1,1,0,0,1,.09-.29,3.08,3.08,0,0,0,.07-.39,1.11,1.11,0,0,0-.09-.39l0-.07-.16-.18s-.16,0-.2,0-.19,0-.19,0l-.11,0S44.1,32,44.1,32s-.11-.14-.16-.21-.11,0-.18-.06-.11,0-.27-.05-.12.05-.21,0-.18.05-.25.05-.25.11-.29.11-.23.07-.3.07-.18.09-.25.07-.12.05-.21,0-.2.07-.27.11-.25.12-.32.07-.2,0-.3,0-.2,0-.25-.09-.2-.09-.27-.16a2.28,2.28,0,0,0-.3-.25s-.18-.21-.2-.25a1.82,1.82,0,0,1-.21-.3s-.16-.3-.18-.36a1.37,1.37,0,0,0-.21-.23,1.92,1.92,0,0,0-.29-.21s0-.11,0-.16,0-.29,0-.29-.11-.16-.07-.25.14-.3.19-.39a1.84,1.84,0,0,0,.06-.44c0-.22,0-.2,0-.29a1,1,0,0,1-.05-.46l.05-.09a2.24,2.24,0,0,0,.2-.43,1,1,0,0,1,.21-.39,1,1,0,0,0,.18-.23,1.5,1.5,0,0,1,.21-.25l.13-.14a1.13,1.13,0,0,1,.26-.22,4.21,4.21,0,0,0,.36-.3,1.52,1.52,0,0,0,0-.25c0-.09.11-.23.11-.23l.05-.16.36-.21.18-.18.28-.36.13.18c.05.05.21,0,.32-.09s.21,0,.3,0a.35.35,0,0,1,.3,0c.11.05.25,0,.34-.11s.14-.05.14-.05a4,4,0,0,1,.89-.11c.7-.05.22,0,.38-.05l.46-.11c.14,0,.05,0,.14.09s-.12.18-.12.32A.9.9,0,0,0,45,25c0,.23.2,0,.36.3s.3.05.44.11.29.1.57.3.34.11.55.11.11.1.13,0,.21-.16.21-.46,0-.09.11,0,.25.05.37.18.36.05.54.14.62,0,.85.05a3.29,3.29,0,0,0,.59,0c.16,0,.21,0,.3,0s.16-.12.36-.48a4,4,0,0,0,.12-.48c0-.3,0-.14,0-.28s-.23,0-.3,0-.34,0-.45,0-.21,0-.37,0-.29,0-.36-.05a.58.58,0,0,1-.3-.18c-.11-.14-.2,0-.2-.3s-.07-.27,0-.48-.16-.13-.37,0-.29,0-.36,0-.07.11-.09.2.2.3.27.32-.18.12-.18.12a1.23,1.23,0,0,0,0,.2c0,.07-.06.09-.11,0s-.07.07-.11,0-.12-.14-.16-.21a1.59,1.59,0,0,1-.16-.32,1,1,0,0,0-.19-.18A.84.84,0,0,1,47,23.1a.23.23,0,0,0-.28-.23c-.11,0-.14-.09-.29-.2s-.14-.14-.3-.25a1.56,1.56,0,0,0-.5-.28c-.21,0-.09.14-.05.25s.07.09.21.23a2.58,2.58,0,0,0,.18.21,2.11,2.11,0,0,0,.36.2c.12,0,.32.32.41.37s0,0,0,.09-.09,0-.19,0-.06.07-.09.19,0,.09,0,.09l-.38.41s-.19-.05-.28-.12.14,0,.23,0a1.12,1.12,0,0,0,.3-.32c0-.07-.09-.12-.09-.12a.61.61,0,0,1-.14-.18s-.16-.11-.3-.25A.46.46,0,0,0,45.5,23a1.45,1.45,0,0,0-.28-.14c-.11-.05-.18-.3-.23-.34a.11.11,0,0,0-.11,0s-.14.05-.21,0-.11,0-.09.2-.45.05-.54.05-.28.18-.28.18l-.2.32a1,1,0,0,0-.3.12c-.09,0-.25.32-.2.43s0,.14-.12.25-.45.23-.55.34-.22.07-.38,0a.41.41,0,0,0-.3,0,2.27,2.27,0,0,0-.3,0,.33.33,0,0,1-.13-.23.44.44,0,0,1,0-.39,1.25,1.25,0,0,0,0-.48.45.45,0,0,1,.18-.43c.16-.11,0-.09.23-.07a1.27,1.27,0,0,1,.57.18c.21.12.3,0,.39,0s.07.07.16-.09-.05-.21,0-.32,0-.12,0-.12-.09-.2-.14-.22-.11-.1-.2-.16-.28-.16.23-.14-.16-.18-.21-.25.11-.14.3-.12.09,0,.18,0a.55.55,0,0,1,.23,0,.67.67,0,0,0,.2-.07c.07,0,.12-.16.3-.32s0,0,.25-.07,0-.3.16-.32a1.14,1.14,0,0,1,.41-.11c.21,0,0,0,0,0a3.8,3.8,0,0,1,.29-.29c.14-.07.05,0,.12.11a.39.39,0,0,0,.34,0c.11-.07.2-.05.39,0s.09.13.18.13.16.05.2,0a.55.55,0,0,1,.32-.16l.25,0,.16,0a.5.5,0,0,0,.3-.46c0-.27.21-.09.3-.07s.25-.07.11-.43.09-.12.23-.07a.53.53,0,0,0,.43-.16c.09-.09,0-.21-.09-.23s-.23.05-.34,0a1.84,1.84,0,0,0-.37.05c-.09,0-.29-.3-.25-.32s.21-.32.3-.43,0-.19,0-.19,0-.22-.57.12-.29.16-.34.34a1.21,1.21,0,0,0-.09.41.36.36,0,0,0,.18.28s-.25.29-.25.41-.39.38-.39.38-.18.14-.2.07-.32,0-.3-.29-.23-.21-.61-.48-.35,0-.44.11-.11-.55,0-.73,0,0,.11,0a2.16,2.16,0,0,0,.39-.09c.14-.07.07-.16.12-.28a2.69,2.69,0,0,1,.52-.48c.11-.09.48-.34.62-.45a5.27,5.27,0,0,1,.52-.37.56.56,0,0,1,.46-.13,1.38,1.38,0,0,1,.45,0,3.25,3.25,0,0,1,.48,0,4.63,4.63,0,0,0,.8.14c.46.07.11,0,.46.16s.36,0,.57.16,0,.21,0,.3-.27.11-.41,0-.28,0-.55,0,.41.39.55.6.34-.05.71-.37.29-.18.59-.32.52-.14.59-.23.43-.11.53,0,.34-.11.45,0,.21-.14.46-.27.2,0,.43.16.21,0,.32.11a.87.87,0,0,0,.85-.05c.2-.2-.07,0-.21-.29s-.21-.09-.25-.41.14-.18.36-.18.12.06.25.11.12.14.21.2a.39.39,0,0,1,.11.3c0,.14,0,.39,0,.43s0,.16.36.07,0-.29-.18-.86.2.27.39.48.36-.14.36-.21a4.15,4.15,0,0,1-.16-.46c-.07-.29.14-.11.48-.25A1.93,1.93,0,0,1,57,16a1.06,1.06,0,0,0,.8-.36c.18-.21.27-.07.34-.07a7.62,7.62,0,0,1,.89-.07c.66,0,.16.07.48.11s.29,0,.52,0a1,1,0,0,1,.39.11c.09,0,0,.12-.09.14a1.06,1.06,0,0,0-.25.3c-.09.13.18.13.64.09s.5.07.61.13a1.88,1.88,0,0,0,.64.07,4.47,4.47,0,0,1,.71-.16c.25,0,.25.05.43.05,0-.14,0-.07.21,0a2,2,0,0,0,.61.14,1.49,1.49,0,0,0,.41,0,.63.63,0,0,1,.32.07,1.38,1.38,0,0,0,.41,0c.07,0,.18-.14.3-.2s.07,0,.14-.21,0,.05.27.07.2.07.3.09.2.14.29.16a5,5,0,0,0,.62,0,7.35,7.35,0,0,1,.82,0c.3,0,.57,0,.71.11s.43.07.86.11a8.87,8.87,0,0,1,1.05.16c.25.07.34.07.39.12s.16-.3.23-.3,1.64.3,1.78.3a2.17,2.17,0,0,1,.52.2,1.49,1.49,0,0,0,.55,0,1.9,1.9,0,0,1,.84.21,1.39,1.39,0,0,0,.37.31s-.39,0-.53,0a4.13,4.13,0,0,0-.82-.21c-.09,0-.11.21-.2.21a.33.33,0,0,0-.21.07l.37.2a5.93,5.93,0,0,0,.57.3s-.09.18-.14.14a1.14,1.14,0,0,0-.32,0,3.81,3.81,0,0,0-.3.32c-.52.54-.2,0-.25-.12s-.2.07-.29.12-.53.16-.46.45.21.05.43.25.12.19.23.46,0,.39,0,.55a3.08,3.08,0,0,1,0,.43c0,.18-.07.07-.21-.05a3.64,3.64,0,0,1-.3-.29c-.2-.18-.22-.12-.27-.39s-.16-.05-.36-.3-.21-.2-.21-.5.11-.29.21-.41-.07-.3-.07-.46-.16-.06-.16-.06l-.07-.07a.93.93,0,0,0-.21.18c-.13.16-.31.05-.41-.09s-.2.07-.32.2.05.23-.11.46-.11.05-.41,0a3.86,3.86,0,0,1-.87-.14c-.22-.09-.52,0-.59.1a1.19,1.19,0,0,1-.36.29,1.08,1.08,0,0,0-.12.71c.07.43.12.07.23.2s.32,0,.8.05.45.09.57.3a1,1,0,0,0,.39.43c.2.14,0,.46,0,.64s-.05.32,0,.32-.25.5-.25.61,0,.07,0,.07-.05.05-.32,0-.37.1-.32.23,0,.21-.12.3-.13.39,0,.46.3.2.57.38.27.3.27.3a2.14,2.14,0,0,1-.29.41.29.29,0,0,1-.37.05c-.11-.07-.11-.1-.11-.39s-.21-.23-.41-.39l-.14-.09v0s0,0,0,0a.62.62,0,0,0-.09-.34.51.51,0,0,0-.21-.12s-.36.39-.36.21-.14-.12-.14-.39-.29,0-.34,0-.14.23-.46.62.3.23.55.25.05.07.3,0,.11,0,.11.13-.07.12-.18.25,0,.16,0,.28a3.33,3.33,0,0,0,.44.55c.22.25.2.25.25.22a5.52,5.52,0,0,1,.25.71c0,.11-.12.41-.16.57a1.69,1.69,0,0,1-.46.57,2.2,2.2,0,0,1-.5.16c-.3.07-.32.23-.32.23l-.14.14a2,2,0,0,1-.32.61c-.25.44-.18.05-.18-.32s-.27-.34-.41-.43Zm.69,5.31c0-.07-.07-.34.22-.2s.16-.21.21-.21.14-.11.2-.34.21-.25.3-.23.16-.07.25-.09.32-.34.39-.45l.09,0a.82.82,0,0,1,.27.21c.12.11,0,.16,0,.27s0,.14-.11.32,0,.23.09.39,0,.13,0,.2-.09,0-.13.14,0,.07,0,.2-.13.16-.25.28,0,.16,0,.18-.1.21-.14.21-.07,0-.16,0a1.09,1.09,0,0,1-.23,0,1.75,1.75,0,0,0-.52,0c-.12,0-.19-.1-.25-.21a1.27,1.27,0,0,1-.14-.3c-.07-.13-.16-.34-.11-.41Zm8.78,6.53c0,.13,0,.22,0,.29a3.72,3.72,0,0,0-.16.48.65.65,0,0,1-.11.3,1.71,1.71,0,0,0-.37.45c-.2.3-.2.23-.41.39a1.31,1.31,0,0,0-.23.21c-.06.07-.18.18-.27.29s-.16.19-.84.48-.3.12-.35,0-.22,0-.32-.09-.11,0-.22.07-.23-.12-.3-.19-.09,0-.07-.13-.07-.09,0-.25-.11-.26-.11-.26a.32.32,0,0,1,0-.2,1.32,1.32,0,0,0,.14-.37c0-.06-.14.1-.18.1a2.79,2.79,0,0,0-.39.2l-.21,0a2.9,2.9,0,0,0,0-.29c0-.09-.28-.16-.37-.34s-.3,0-.41,0-.39,0-.55,0-.2.16-.32.16-.38.18-.52.13-.23.21-.3.16-.34,0-.45,0-.21.11-.37.11a1.55,1.55,0,0,0-.41.12,2,2,0,0,1-.3,0s-.11-.11-.11-.16a.08.08,0,0,1,.11-.07c.1,0,0-.39.07-.5a1.94,1.94,0,0,0,0-.64,1.81,1.81,0,0,1,.07-.66c0-.09.06-.87.11-.93a.23.23,0,0,1,.14-.1A.49.49,0,0,0,68,38.4a.36.36,0,0,1,.3-.13c.11,0,.13-.07.29-.09a1.31,1.31,0,0,0,.35-.12c.22-.11.27-.11.43-.2s.11-.12.16-.12.07-.13.11-.29.09-.12.14-.21,0,0,.07.07.07.11.11.09.05-.2.07-.27.16-.07.21-.14a1.17,1.17,0,0,1,.11-.23.64.64,0,0,1,.27-.18c.12,0,.19.07.25.16s0,.11,0,.11a1.81,1.81,0,0,0,.43.14s0-.09,0-.3,0-.06.16-.11,0,0,.11-.11.21-.28.41-.32,0,0,.12,0,.11,0,.32.05l.29,0c.09,0,.09.12.09.12a.74.74,0,0,0-.11.22,1.57,1.57,0,0,0,0,.3c0,.07.07.21.12.21s.11.13.18.16.2.16.27.2.16,0,.23.05.12-.09.21-.07.13-.21.2-.3l.21-.39s.07-.38.11-.57.07,0,.09,0a.77.77,0,0,1,.12.22c0,.14.13.19.18.3a2.93,2.93,0,0,0,.14.39,3.09,3.09,0,0,1,.06.34.66.66,0,0,1,0,.37c-.05,0,.16.11.16.11s.2,0,.27.39.21.32.23.45.14.1.3.16,0,.14.11.32,0,.32,0,.44Zm.41-3.79c-.12,0-.46,0-.48-.05a1.18,1.18,0,0,1-.3-.2c-.11-.11-.34-.21-.39-.32a.19.19,0,0,0-.2-.14c-.09,0-.18.12-.3.23s-.07-.07-.23,0a.55.55,0,0,1-.43-.09c-.09-.07-.07-.19-.2-.12s-.23,0-.19-.09a.52.52,0,0,0,0-.25s0-.18-.07-.2-.12-.16-.25-.21L73,34.28a.13.13,0,0,1-.07,0,.64.64,0,0,0-.21,0c-.13-.05-.25,0-.32-.09a.33.33,0,0,1,0-.21s.29.05,0-.18l-.3-.21s0,0,0,0,.19,0,.19,0,.32-.21.34.11,0,.23.14.41.18.23.29.14.28-.09.3-.25,0-.16.14-.16.13,0,.2,0,.09,0,.32.14.43.09.57.21a1.11,1.11,0,0,0,.41.18c.21.07.12,0,.3.16s.11.25.2.34.16-.07.12.14-.3,0,.09.29.43.37.55.46S76.38,35.85,76.29,35.85Zm10.37-4.77-.27,0s-.2-.18-.25-.21a.24.24,0,0,1-.11-.2c0-.12,0-.12,0-.25s-.14-.14-.2-.23a1.92,1.92,0,0,0-.19-.23c-.07-.09-.11,0-.18-.05a.44.44,0,0,0-.18,0,.4.4,0,0,1-.28-.07c-.09-.07-.18,0-.27-.13s-.14-.09-.2-.16-.16-.07-.21-.16-.18,0-.23,0-.2.07-.2.07a1,1,0,0,1-.21,0,1.43,1.43,0,0,0-.2-.05l-.3-.06-.27-.16a.94.94,0,0,1-.28-.16c0-.07-.29-.16-.29-.21a1.45,1.45,0,0,0-.28-.14.72.72,0,0,1,0-.34c0-.16.06-.11,0-.27s-.12-.14-.21-.34a2.86,2.86,0,0,0-.27-.51c-.16-.25-.09,0-.16-.18s-.2-.43-.25-.52A.6.6,0,0,1,81,26c0-.2,0-.13-.19-.41s-.2,0-.27,0,0,.21,0,.39a.87.87,0,0,0,.16.34c.12.16,0,.3.1.39a2,2,0,0,1,.06.3,1.65,1.65,0,0,1,0,.38v0a.15.15,0,0,0,0-.06l-.09-.21c-.07-.14-.12-.16-.12-.16l-.11-.23a1.13,1.13,0,0,1-.14-.39,1,1,0,0,0-.11-.36,5.6,5.6,0,0,1,0-.64c0-.09-.13-.2-.27-.3s-.18-.09-.25-.2a2.86,2.86,0,0,1-.21-.57c0-.21,0-.48,0-.75s.07-.21.2-.35a3.19,3.19,0,0,0,.3-.45c.09-.14.25-.3.37-.46a2,2,0,0,0,.27-.41l.09-.32A.66.66,0,0,0,81,21.5a4.7,4.7,0,0,0-.16-1c0-.16,0-.16,0-.22a2.43,2.43,0,0,0,0-.89c0-.21-.11-.12-.21-.23s-.16.09-.2-.12-.18-.11-.71-.22-.29-.05-.45-.07,0,0-.07,0a.36.36,0,0,1-.21-.05c-.11,0-.27.05-.41.12s-.14,0-.25.11-.09.05-.11-.05.09-.16-.07-.11S78,19,77.93,19s-.3.09-.46.18-.29,0-.52.11-.14,0,0-.11-.09,0-.07-.07-.18-.11-.34-.16.05-.07,0-.11,0-.05,0-.25.11-.09.3-.28.16-.09.36-.11l.5,0a.85.85,0,0,0,.37-.29c.13-.19,0-.09-.12-.12a.23.23,0,0,0-.22.14c0,.05-.3-.11-.32-.18s.11-.18.2-.23a.77.77,0,0,1,.5.05l.23.06s.16-.11.14-.18a.31.31,0,0,0-.14-.23c-.14-.09.3-.2.37-.25a1.55,1.55,0,0,1,.52-.07c.09,0,.55-.22.62-.18a3.5,3.5,0,0,0,.73,0c.06,0,.66-.12.95-.14s.48,0,.8,0,.09.11.25.23.12.16.19.18,0,0,0,.09.37.09.53.07.59-.21.89-.25.7-.07.84-.09a1.57,1.57,0,0,1,.52.11l1.21,0s0,.16,0,.16a1.17,1.17,0,0,0,.32.09c.16,0,.3.09.37.07s.2.22.2.18.16-.21.28-.3.25,0,.38,0a3.39,3.39,0,0,1,.78,0c.16,0,.3.11.36.11s.12,0,.21.11.55-.29.66-.63.3-.23.46-.3.07.16.09.32,0,.11.14.14l.11,0a.89.89,0,0,0,0,.23c0,.09,0,.07.25,0s.12,0,.44-.13.18-.19.27-.16.16,0,.14.13-.23.25-.37.32-.34,0-.48.14a1.22,1.22,0,0,0-.43.27c-.11.14-.11,0-.14,0a.38.38,0,0,0-.2-.14c-.07,0,0,.21,0,.21a.61.61,0,0,1-.09.25c-.07.09-.29.07-.41.11s-.55.23-.8.32a2.46,2.46,0,0,0-.77.62.71.71,0,0,0,0,.43c0,.11.39.23.37.3a6.64,6.64,0,0,0,1.11.25l-.16.16s-.11.38,0,.5a.51.51,0,0,0,.46.11c.11,0,.2-.38.2-.52s.23-.16.23-.16a1.65,1.65,0,0,1,.55-.21c.29,0,0-.2.09-.75s.16-.2.23-.25a5.68,5.68,0,0,0,.52-.48c.07-.11.32.05.44.05s.38,0,.45.2.12.12,0,.23.09.39.2.34a5.25,5.25,0,0,0,.71-.36c.09-.05.11,0,.18,0S94,19,94,19a1,1,0,0,1,0,.36c0,.25,0,.21.09.28s0,.09.2.32.09,0,.16,0,.16.14.25.21-.07.23-.07.23a1.43,1.43,0,0,0-.18.18,3.69,3.69,0,0,1-.41.3c-.11.09-.34,0-.5,0a7.1,7.1,0,0,0-1.14.09,2.81,2.81,0,0,0-.59.21c-.07,0-.12.2,0,.18s.22,0,.29,0a1.45,1.45,0,0,1,.62-.05c.16.07-.09.14-.3.3s.07.16.25.21.16,0,.44-.07.13-.05.2,0,0,.16,0,.16,0,.05-.3.11-.18,0-.3.05-.11.07-.45.34-.3.05-.21-.13-.16,0,.21-.28,0,0-.16,0a3.05,3.05,0,0,1-.53.21c-.09,0-.32.2-.5.36s-.18.18-.18.34-.3.07-.34.07-.39.16-.39.25-.23.23-.23.23-.23.18-.25.25-.37.32-.37.46a.33.33,0,0,1-.11.2l-.41.28-.87.59c-.2.16-.2.23-.18.37s0,.22.07.61-.05.48-.05.48l-.16.21s-.18-.21-.18-.21a1.44,1.44,0,0,1-.09-.52c0-.32-.07-.14-.07-.21s-.09-.05-.07-.11-.16-.07-.29-.19-.21,0-.23-.06-.27,0-.27-.05-.14,0-.3.25-.16.14-.25.14-.25,0-.3-.14-.27,0-.36,0a2.34,2.34,0,0,0-.32.07,1.1,1.1,0,0,0-.32.2c-.07.07-.34.16-.39.23a.54.54,0,0,0-.09.3s-.21.41-.18.5-.19.46-.19.59a1.45,1.45,0,0,0,.12.53,1.53,1.53,0,0,0,.55.34l.36.05a1.5,1.5,0,0,1,.32-.14c.11-.05.2-.27.3-.48s.06-.09.18-.14a.48.48,0,0,1,.39.05c.11.07,0,.09,0,.14a5.46,5.46,0,0,1-.2.54,2.39,2.39,0,0,0-.23.64,1.23,1.23,0,0,1,.39-.07,1.57,1.57,0,0,1,.54.09c.12.07,0,.1,0,.16a1.71,1.71,0,0,1,0,.55,2.3,2.3,0,0,0,0,.55.24.24,0,0,0,.09.2s.2.23.29.25a.24.24,0,0,1,.14.12l.12.18-.23-.07Zm10.61,3.77a1.31,1.31,0,0,1-.27.54c-.12.07-.12.16-.19.26s0-.1-.13.15-.07.3-.14.53,0,0-.07.23,0,.39-.07.64,0,.27-.06.45.09-.09-.07.32a4.5,4.5,0,0,0-.23.57c-.05.18,0,.05-.18.14a.92.92,0,0,1-.32.14l-.62.16c-.09,0-.45.11-.34.34s.11.25,0,.52-.27.37-.27.48a1.22,1.22,0,0,1-.1.34c0,.09.16-.09,0,.19s-.23.2-.3.36,0,0-.07.16a.38.38,0,0,1-.25.18s0,.09,0,.05-.05,0-.32-.05-.3-.25-.34-.11,0,.2.18.32.43.16.36.29a1.46,1.46,0,0,0-.11.21c0,.07.07,0,0,.07s-.2.29-.25.29-.09.1-.16.05-.25-.16-.29-.09-.12-.09-.09.16,0,.39,0,.45a.58.58,0,0,1-.3,0l0-.09-.12,0s0,.2,0,.25.07.07.16.18a.39.39,0,0,1,0,.3s0,0-.09.14a.57.57,0,0,0-.13.2c0,.05-.12.3,0,.27s.3-.11.3.19.07.2,0,.41-.16.2-.19.39a.52.52,0,0,0,0,.29c0,.12.11,0,0,.12a1.05,1.05,0,0,1-.36,0c-.11-.07-.39-.21-.48-.28a4.09,4.09,0,0,1-.36-.45l-.21-.39s-.23-.3-.18-.39.16-.18.16-.23.11-.2,0-.25-.09-.07-.14-.23,0-.29-.11-.34-.11-.27-.21-.3-.13-.13-.13-.13l-.12-1.46s0-.66-.07-.8.05-.46,0-.71,0-.59,0-.7a6.51,6.51,0,0,0,0-.71c0-.3.21-.64,0-.75s0-.28-.23-.28a.76.76,0,0,1-.45-.2c-.16-.14-.46-.37-.55-.46s-.39-.32-.46-.39-.18-.38-.25-.45-.11-.37-.2-.53-.25-.43-.3-.48-.43-.52-.43-.52l0-.3s.28-.16.23-.2,0-.12-.11-.21a.24.24,0,0,1,0-.39,1.84,1.84,0,0,0,.27-.38l.27-.46s.21-.23.21-.39.3-.27.11-.41-.09-.27-.13-.39,0-.18.13-.29a4,4,0,0,0,.46-.5,1.9,1.9,0,0,1,.27-.05s.14-.57.3-.2.2.18.16.45.07.21.14.14,0,0,.11-.28.09-.43.18-.34a.46.46,0,0,0,.3.16c.16,0,.2,0,.27.14s0,0,.34,0,.73-.11.69.07,0,.09-.07.09a.36.36,0,0,1,.16.09,1.2,1.2,0,0,0,.43.28.77.77,0,0,1,.48.22c.21.21.28.23.32.35s.14,0,.23.13a.37.37,0,0,0,.34.12c.12,0,0-.12.21,0s.34.16.43.46.27.27.11.55-.43.41-.29.38.36-.11.43-.11.12,0,.21,0,.11-.07.11,0,0,0,0,.11v0s0-.13.18-.09.09-.11.34.12.25.16.35.29.18-.07.22,0,.21,0,.39,0,0-.11.3,0,.5.11.54.25.21.09.28.18.11,0,.18.09.3.1.25.21,0,.14-.09.3Zm18.91,2a.49.49,0,0,1-.05.2,3.71,3.71,0,0,0-.07.44c0,.11-.13.25-.13.34s-.18.34-.18.39-.19.29-.16.34a4.73,4.73,0,0,0,0,.48c0,.2-.14.16-.14.16a.5.5,0,0,1-.29.11.31.31,0,0,0-.21,0l-.23-.37s0-.39,0-.5.07-.16.16-.21.14-.2.14-.36a1.11,1.11,0,0,1,0-.3,1,1,0,0,0,0-.41c0-.16.12-.11.12-.11l.25-.12a1,1,0,0,0,.2-.11l.37-.18a2.36,2.36,0,0,0,.25-.48l.11.39v.25Zm12.5-2.31a.49.49,0,0,1-.21.14,1.41,1.41,0,0,1-.29-.21,2.17,2.17,0,0,1-.3-.41,5.39,5.39,0,0,0-.34-.54c-.07-.12-.19-.21-.23-.32a1.59,1.59,0,0,0-.27-.46c-.07,0-.1-.14-.21-.27s-.11-.23-.16-.3l-.18-.23,0,0a.29.29,0,0,0,.23.07c.14,0,.25.3.34.39a1.1,1.1,0,0,0,.35.29c.2.14.18-.11.45.28s.14.13.28.38a1.06,1.06,0,0,0,.27.41c.07,0,.11.21.14.26a1,1,0,0,1,.13.27c.05,0,.07.14,0,.27Zm.18-6.77c-.14-.09-.25.11-.48.46s0,.34.25.59.3.39.59.8.12.38.12.54-.41.55-.55.67-.25.22-.36.11-.21-.11-.23-.25-.16-.07-.32-.34-.21-.09-.27-.32-.16-.14-.26,0a1,1,0,0,0-.09.62,1.13,1.13,0,0,1-.07.52s-.11-.11-.13-.32a1.34,1.34,0,0,1,0-.45c0-.23,0,0,0-.25a1.56,1.56,0,0,0-.16-.57c-.09-.3-.12-.21-.21-.26s-.2.28-.29.16-.09-.09-.09-.38-.19-.14-.37-.39-.16-.21-.2-.37a.94.94,0,0,0-.44-.48c-.11,0-.29-.09-.36-.09s-.07,0-.12,0-.29.11-.45.27-.3.3-.39.41a1.53,1.53,0,0,1-.55.34.85.85,0,0,0-.25.37,3.51,3.51,0,0,0-.23.55c0,.27,0,.27,0,.54a2.71,2.71,0,0,0,0,.41c0,.19-.09.21-.09.21a3,3,0,0,1-.3.25s-.25.11-.27,0-.14-.14-.14-.3-.11-.2-.11-.41S122,30.22,122,30a10.15,10.15,0,0,0-.5-1.16c-.09-.23,0-.14,0-.48s-.16-.3-.12-.43-.13-.05-.18,0-.27.2-.41.06-.11-.18-.23-.29a1,1,0,0,0-.32-.25c-.18-.12-.2-.3-.27-.3a1.93,1.93,0,0,1-.37-.16l-.38,0-.35,0a3.08,3.08,0,0,1-.54-.05c-.23,0-.23,0-.32-.09s-.3-.11-.32-.25-.07-.05-.16-.09-.12,0-.16,0-.21,0-.43-.05-.32-.14-.55-.3-.37-.2-.46-.43-.2.18,0,.46a.92.92,0,0,1,.13.38,4.05,4.05,0,0,1,.14.39c.07.28.21.16.32.34s.23,0,.5,0,.16-.12.43-.39.12,0,.26.23a1,1,0,0,0,.29.39c.18.18.25.13.39.25s-.07.27-.21.43-.2.18-.25.3a1.19,1.19,0,0,1-.36.45,4.79,4.79,0,0,0-.39.35,5.89,5.89,0,0,1-.64.27,6.19,6.19,0,0,0-.7.41l-.44.11s-.32-.09-.34-.16a2,2,0,0,1-.18-.61c0-.23-.34-.59-.39-.71s-.27-.32-.34-.43-.25-.39-.28-.46-.11-.25-.2-.5-.46-.59-.46-.66a.51.51,0,0,0-.27-.27l-.21,0a1.66,1.66,0,0,1-.27-.23,1.69,1.69,0,0,0,.11.3,8.63,8.63,0,0,1,.51,1.05c0,.16.11.2.16.39s.11.2.22.54.19.23.28.46.11.18.27.36.11.07.3.3.23.3.34.48a1.74,1.74,0,0,1,.2.57c0,.25.19.07.35.11a2.1,2.1,0,0,1,.79,0c.53,0,.35,0,.42,0s.29,0,.31-.09a3.75,3.75,0,0,1-.18.8,2.53,2.53,0,0,1-.23.37l-.16.22c0,.05-.27.39-.38.57a1.6,1.6,0,0,1-.44.41,2.46,2.46,0,0,0-.34.46,4.69,4.69,0,0,1-.48.62l-.29.36a1.08,1.08,0,0,0-.19.32c0,.07,0,.3,0,.39s.09.45.2.73,0,.2.07.52a2.42,2.42,0,0,1,0,.41s-.12.3-.12.39-.27.27-.38.34-.14.14-.23.19a2.53,2.53,0,0,0-.37.38,1.13,1.13,0,0,0-.2.55c0,.27,0,.09.07.14s0,.29,0,.45,0,.09-.11.12-.12.13-.21.18a.64.64,0,0,0-.29.39c-.09.23-.05.13-.12.2l-.11.21c0,.09-.07.2-.21.25s-.22.23-.34.32-.09.09-.25.23a2.86,2.86,0,0,0-.3.29c-.09.09-.18.16-.25.12s-.2.11-.29.11-.19.12-.28.12a.71.71,0,0,1-.29,0c-.12,0-.25.11-.32.11s-.28-.11-.28-.11a2.38,2.38,0,0,1-.11-.26,2.75,2.75,0,0,1-.09-.5,1.92,1.92,0,0,0-.14-.29c0-.14,0-.1-.11-.19l-.25-.29c-.12-.12,0-.14,0-.21s0-.23-.07-.29a1.21,1.21,0,0,1,0-.39,1.42,1.42,0,0,0,0-.3c0-.14-.11-.18-.11-.3a1.45,1.45,0,0,0-.16-.43,4.42,4.42,0,0,0-.3-.55c-.13-.18,0-.18,0-.36a.74.74,0,0,1,.09-.43l.11-.16.16-.3,0-.11s0-.23,0-.3,0-.21-.11-.3,0-.11,0-.23,0-.11,0-.29-.12-.21-.19-.37a1,1,0,0,1-.11-.36,1.29,1.29,0,0,0-.2-.39,1.8,1.8,0,0,0-.32-.34c-.16-.14-.1-.21-.1-.21a1.1,1.1,0,0,1,.1-.29,2,2,0,0,0,.06-.39.92.92,0,0,0-.09-.39l0-.07-.16-.18s-.16,0-.21,0-.18,0-.18,0l-.11,0s-.12-.07-.12-.14-.11-.14-.16-.21-.13,0-.18-.06-.11,0-.27-.05-.12.05-.21,0-.18.05-.25.05-.25.11-.3.11-.22.07-.29.07-.19.09-.25.07-.12.05-.21,0-.2.07-.27.11-.25.12-.32.07-.21,0-.3,0-.2,0-.25-.09-.2-.09-.27-.16a2.28,2.28,0,0,0-.3-.25l-.21-.25a2.61,2.61,0,0,1-.2-.3s-.16-.3-.18-.36a2,2,0,0,0-.21-.23,2.62,2.62,0,0,0-.29-.21s0-.11,0-.16,0-.29,0-.29-.11-.16-.07-.25l.18-.39a1.38,1.38,0,0,0,.07-.44c0-.22,0-.2,0-.29a1,1,0,0,1-.05-.46l.05-.09a3.2,3.2,0,0,0,.2-.43,1,1,0,0,1,.21-.39,1.41,1.41,0,0,0,.18-.23,2.38,2.38,0,0,1,.2-.25l.14-.14a1.24,1.24,0,0,1,.25-.22,3.4,3.4,0,0,0,.37-.3,1,1,0,0,0,0-.25c0-.09.12-.23.12-.23l0-.16.37-.21.18-.18.28-.36.13.18c0,.05.21,0,.32-.09s.21,0,.3,0,.18-.05.29,0,.26,0,.35-.11.13-.05.13-.05a4.17,4.17,0,0,1,.89-.11c.71-.05.23,0,.39-.05l.46-.11c.11,0,0,0,.13.09s-.11.18-.11.32a.75.75,0,0,0,0,.36c0,.23.2,0,.36.3s.3.05.44.11.29.1.57.3.34.11.54.11.12.1.14,0,.21-.16.21-.46,0-.09.11,0,.25.05.36.18.37.05.55.14.62,0,.85.05a3.24,3.24,0,0,0,.59,0c.16,0,.2,0,.29,0s.16-.12.37-.48a3.15,3.15,0,0,0,.11-.48c0-.3,0-.14,0-.28s-.23,0-.3,0-.34,0-.45,0-.21,0-.37,0-.3,0-.39-.05a.52.52,0,0,1-.29-.18c-.14-.14-.21,0-.21-.3s-.07-.27,0-.48-.16-.13-.36,0-.3,0-.39,0-.07.11-.09.2.2.3.27.32-.18.12-.18.12a1.8,1.8,0,0,0,0,.2c0,.07-.07.09-.12,0s-.07.07-.11,0-.12-.14-.16-.21-.12-.25-.16-.32a1.52,1.52,0,0,0-.18-.18.7.7,0,0,1-.07-.39.23.23,0,0,0-.28-.23c-.11,0-.13-.09-.29-.2s-.12-.14-.3-.25a1.56,1.56,0,0,0-.5-.28c-.21,0-.09.14,0,.25s.07.09.21.23a2.58,2.58,0,0,0,.18.21,1.67,1.67,0,0,0,.39.2c.11,0,.32.32.41.37s0,0,0,.09-.09,0-.18,0-.07.07-.09.19,0,.09,0,.09l-.39.41s-.18-.05-.27-.12.13,0,.23,0a1,1,0,0,0,.29-.32c0-.07-.09-.12-.09-.12a.85.85,0,0,1-.14-.18s-.16-.11-.29-.25A.5.5,0,0,0,108,23a1.67,1.67,0,0,0-.27-.14c-.12-.05-.19-.3-.23-.34a.13.13,0,0,0-.12,0,.18.18,0,0,1-.2,0c0-.09-.11,0-.09.2s-.46.05-.55.05-.27.18-.27.18l-.21.32a1,1,0,0,0-.29.12c-.1,0-.26.32-.21.43s0,.14-.11.25-.46.23-.55.34-.23.07-.37,0a.38.38,0,0,0-.29,0,2.27,2.27,0,0,0-.3,0,.36.36,0,0,1-.14-.23.47.47,0,0,1,0-.39,1.25,1.25,0,0,0,0-.48.45.45,0,0,1,.18-.43c.16-.11,0-.09.23-.07a1.31,1.31,0,0,1,.57.18c.21.12.3,0,.37,0s.06.07.15-.09,0-.21,0-.32,0-.12,0-.12a.89.89,0,0,0-.13-.22l-.21-.16c-.11-.07-.27-.16.23-.14s-.16-.18-.2-.25.11-.14.29-.12.09,0,.18,0a.59.59,0,0,1,.23,0,.79.79,0,0,0,.21-.07c.07,0,.11-.16.29-.32s0,0,.26-.07,0-.3.15-.32a1.2,1.2,0,0,1,.42-.11c.2,0,0,0,0,0s.16-.2.3-.29,0,0,.11.11a.39.39,0,0,0,.34,0c.12-.07.21-.05.39,0s.09.13.18.13.16.05.21,0a.52.52,0,0,1,.32-.16l.25,0,.16,0a.52.52,0,0,0,.3-.46c0-.27.2-.09.29-.07s.25-.07.12-.43.09-.12.22-.07a.55.55,0,0,0,.44-.16c.09-.09,0-.21-.09-.23s-.23.05-.35,0a2.18,2.18,0,0,0-.38.05c-.09,0-.3-.3-.25-.32s.2-.32.29-.43,0-.19,0-.19,0-.22-.57.12-.29.16-.34.34a1.51,1.51,0,0,0-.09.41.36.36,0,0,0,.18.28s-.25.29-.25.41-.38.38-.38.38-.19.14-.21.07-.32,0-.3-.29-.22-.21-.64-.48-.34,0-.43.11-.11-.55,0-.73,0,0,.11,0a2.16,2.16,0,0,0,.39-.09c.14-.07.07-.16.11-.28a2.76,2.76,0,0,1,.53-.48c.11-.09.48-.34.61-.45s.3-.21.53-.37a.55.55,0,0,1,.46-.13,1.38,1.38,0,0,1,.45,0,3.33,3.33,0,0,1,.48,0,4.42,4.42,0,0,0,.8.14c.46.07.11,0,.46.16s.36,0,.57.16,0,.21,0,.3-.28.11-.41,0-.28,0-.55,0,.41.39.55.6.34-.05.7-.37.3-.18.6-.32.52-.14.59-.23.43-.11.53,0,.34-.11.45,0,.21-.14.46-.27.2,0,.43.16.21,0,.32.11a.85.85,0,0,0,.84-.05c.21-.2-.06,0-.2-.29s-.21-.09-.25-.41.13-.18.36-.18.12.06.25.11.14.14.21.2a.39.39,0,0,1,.11.3c0,.14,0,.39,0,.43s0,.16.36.07,0-.29-.18-.86.2.27.39.48.36-.14.36-.21a4.15,4.15,0,0,1-.16-.46c-.07-.29.14-.11.48-.25a1.93,1.93,0,0,1,.71-.09,1.06,1.06,0,0,0,.8-.36c.18-.21.27-.07.34-.07a7.62,7.62,0,0,1,.89-.07c.66,0,.16.07.48.11s.29,0,.52,0a1,1,0,0,1,.39.11c.09,0,0,.12-.09.14a1.06,1.06,0,0,0-.25.3c-.09.13.18.13.64.09a.75.75,0,0,1,.63.13,1.88,1.88,0,0,0,.64.07,4.47,4.47,0,0,1,.71-.16c.25,0,.25.05.43.05s.19,0,.39.16a1.86,1.86,0,0,0,.62.13,1.19,1.19,0,0,0,.41,0,.59.59,0,0,1,.32.07,1.36,1.36,0,0,0,.41,0c.07,0,.18-.14.29-.21s.07,0,.14-.2.05,0,.27.07a1.21,1.21,0,0,1,.3.09c.11,0,.21.13.3.16a5,5,0,0,0,.61,0c.16,0,.53,0,.82,0s.57,0,.71.12.43.07.87.11a7.4,7.4,0,0,1,1.05.16c.25.07.34.07.38.11s.16-.29.23-.29,1.64.29,1.78.29a1.88,1.88,0,0,1,.53.21,1.43,1.43,0,0,0,.54,0,1.83,1.83,0,0,1,.85.2,1.11,1.11,0,0,0,.36.32c.05.05-.39,0-.52,0a4.31,4.31,0,0,0-.82-.21c-.09,0-.12.21-.21.21s-.2.06-.2.06l.38.21s.53.3.57.3-.09.18-.13.13a1.71,1.71,0,0,0-.32,0l-.3.32c-.52.55-.2.05-.25-.11s-.2.07-.3.11-.52.16-.45.46.2,0,.43.25.12.18.23.46-.05.38-.05.54a2.15,2.15,0,0,1,0,.44c0,.18-.06.06-.2-.05a2.08,2.08,0,0,1-.3-.3c-.2-.18-.23-.11-.27-.38s-.16-.05-.37-.3-.2-.21-.2-.5.11-.3.2-.41-.07-.3-.07-.46-.15-.07-.15-.07l-.07-.07a1.52,1.52,0,0,0-.21.19c-.14.16-.32,0-.41-.09s-.2.06-.32.2.05.23-.11.46-.12,0-.41,0A5.11,5.11,0,0,1,132,19c-.23-.09-.52,0-.59.09a1.12,1.12,0,0,1-.37.3,1.1,1.1,0,0,0-.11.71c.07.43.14.06.23.2s.32,0,.79.05.46.09.57.29a1.28,1.28,0,0,0,.39.44c.21.13,0,.45,0,.63s-.05.32,0,.32-.25.51-.25.62,0,.07,0,.07,0,0-.31,0-.37.09-.32.23,0,.2-.12.3-.13.38,0,.45.29.21.57.39.27.3.27.3a1.89,1.89,0,0,1-.3.41.27.27,0,0,1-.36,0c-.12-.07-.12-.09-.12-.39s-.2-.22-.41-.38l-.13-.09v0s0,0,0,0a.76.76,0,0,0-.09-.35.48.48,0,0,0-.21-.11s-.36.39-.39.2-.11-.11-.13-.38-.3,0-.35,0-.13.23-.45.62.29.22.55.25,0,.06.29,0,.12,0,.12.14-.07.11-.19.25,0,.16,0,.28a2.44,2.44,0,0,0,.43.54c.23.25.2.25.25.23a3.33,3.33,0,0,1,.25.71c0,.11-.11.41-.16.57a1.65,1.65,0,0,1-.45.57,3.53,3.53,0,0,1-.51.16c-.29.07-.32.23-.32.23l-.13.13a2.41,2.41,0,0,1-.32.62c-.25.43-.18,0-.18-.32S129,27.89,128.86,27.8Zm.68,5.31c.05-.07-.06-.34.23-.2s.16-.21.21-.21.13-.11.2-.34.21-.25.3-.23.16-.07.25-.09.32-.34.39-.45l.09,0a.82.82,0,0,1,.27.21c.14.13,0,.16.05.27s-.05.14-.12.32,0,.23.1.39,0,.13,0,.2-.09,0-.14.12,0,.06,0,.2-.14.16-.25.28,0,.15,0,.18-.1.2-.14.2-.07,0-.16,0a.89.89,0,0,1-.23,0,2.18,2.18,0,0,0-.52,0c-.12,0-.19-.09-.25-.2a.85.85,0,0,1-.14-.3.75.75,0,0,1-.12-.39Zm8.81,6.53c0,.13,0,.22,0,.29s-.13.28-.16.48a.65.65,0,0,1-.11.3,2.39,2.39,0,0,0-.39.45c-.2.3-.2.23-.41.39a1.31,1.31,0,0,0-.23.21c-.07.07-.18.18-.27.29s-.16.19-.85.48-.29.12-.34,0-.23,0-.32-.09-.11,0-.22.07-.23-.12-.3-.19-.09,0-.07-.13-.07-.09,0-.25-.11-.26-.11-.26a.32.32,0,0,1-.05-.2,1.22,1.22,0,0,0,.14-.39c0-.09-.12.09-.18.09a2,2,0,0,0-.39.21l-.21,0s0-.2,0-.3-.27-.16-.36-.34-.3,0-.41,0-.39,0-.55,0-.2.15-.32.15-.38.19-.52.12-.23.2-.3.16-.34,0-.45,0-.21.12-.37.12a1.86,1.86,0,0,0-.41.11,1.38,1.38,0,0,1-.3,0s-.11-.12-.11-.16a.08.08,0,0,1,.11-.07c.09,0,0-.39.07-.5a1.92,1.92,0,0,0,0-.64,2,2,0,0,1,.06-.66c.05-.1.07-.87.12-.94s.07-.07.14-.09a.61.61,0,0,0,.27-.16.37.37,0,0,1,.3-.14c.11,0,.13-.07.29-.09a.87.87,0,0,0,.34-.11,2.61,2.61,0,0,0,.44-.21c.16-.09.11-.11.16-.11a.71.71,0,0,0,.11-.3c0-.14.09-.11.12-.2s0,0,.06.06.07.12.12.1,0-.21.07-.28.16-.07.2-.13.05-.14.12-.23a.6.6,0,0,1,.27-.19c.11,0,.18.07.25.16s0,.12,0,.12.36.16.43.11,0-.09,0-.29.05-.07.16-.12,0,0,.12-.11a.67.67,0,0,1,.41-.32c.2,0,0,0,.11,0l.32,0,.3,0c.09,0,.09.12.09.12a.7.7,0,0,0-.11.23.93.93,0,0,0,0,.29c0,.07.07.21.11.21s.12.13.19.16.2.16.27.2.16,0,.23.05.11-.09.2-.07.14-.21.21-.3.2-.38.2-.38.07-.39.12-.57.07,0,.09,0a.8.8,0,0,1,.11.23,1.45,1.45,0,0,0,.19.29c0,.14.09.28.13.39a1.87,1.87,0,0,1,.07.34.66.66,0,0,1,0,.37s.16.11.16.11.21,0,.28.39.2.32.23.46.13.09.29.16,0,.13.12.31.07.39.09.51Zm.39-3.79c-.12,0-.46,0-.48-.05a1.18,1.18,0,0,1-.3-.2c-.11-.11-.34-.21-.39-.32a.2.2,0,0,0-.2-.14c-.09,0-.18.12-.3.23s-.07-.07-.23,0a.55.55,0,0,1-.43-.09c-.09-.07-.07-.19-.21-.14s-.22,0-.18-.09a.46.46,0,0,0,0-.25s.05-.18-.06-.21-.12-.16-.25-.2l-.32-.12-.07,0a.64.64,0,0,0-.21,0c-.13,0-.25,0-.32-.1a.25.25,0,0,1,0-.2s.29,0,0-.18l-.3-.21s.05,0,0,0,.19,0,.19,0,.32-.21.34.11,0,.23.14.41.18.23.29.14.28-.09.3-.25,0-.16.13-.16.14,0,.21,0,.09,0,.32.12.43.09.57.2a.82.82,0,0,0,.41.18c.21.07.11,0,.3.16s.11.25.2.35.16-.07.12.13-.3,0,.09.3l.54.46c.12.09.21.2.1.2Z"/>
    </g>
    <g id="satellite_a_group" clip-path="url(#satellite_clip)">
      <use xlink:href="#path_clip"/>
      <path id="satellite_a" class="cls-1" d="M30,.32a30,30,0,0,0-9.89,58.33c.78.27,1.25.83,2.06,1,0,0,1.9-.22,1.9-1s-1.42-1.24-1.42-1.24c-.61-.17-1.37,0-1.95-.25a28.42,28.42,0,1,1,18.81-.07c.27.46-.08-.34.2.11C51.17,53,60,43.23,60,30.32A30,30,0,0,0,30,.32Z" transform="translate(0 -0.32)"/>
    </g>
    <g id="satellite_b_group" clip-path="url(#satellite_clip)">
      <use xlink:href="#path_clip"/>
      <path id="satellite_b" class="cls-1" d="M30,.32a30,30,0,0,0-9.89,58.33c.78.27,1.25.83,2.06,1,0,0,1.9-.22,1.9-1s-1.42-1.24-1.42-1.24c-.61-.17-1.37,0-1.95-.25a28.42,28.42,0,1,1,18.81-.07c.27.46-.08-.34.2.11C51.17,53,60,43.23,60,30.32A30,30,0,0,0,30,.32Z" transform="translate(0 -0.32)"/>
    </g>
    <path id="globe_outline" class="cls-1" d="M30,46.5A16.5,16.5,0,1,1,46.5,30,16.52,16.52,0,0,1,30,46.5Zm0-32A15.5,15.5,0,1,0,45.5,30,15.51,15.51,0,0,0,30,14.5Z"></path>
  </g>
</svg>