<?xml version="1.0" encoding="UTF-8"?>
<svg width="24px" height="24px" viewBox="0 0 24 24" version="1.1" xmlns="http://www.w3.org/2000/svg" xmlns:xlink="http://www.w3.org/1999/xlink">
    <title>Icon — Twitter</title>
    <g id="Icon-—-Twitter" stroke="none" stroke-width="1" fill="none" fill-rule="evenodd">
        <path d="M24,4.34710368 C23.1075,4.7451505 22.1565,5.00898997 21.165,5.13709699 C22.1850001,4.51791304 22.9635,3.5449097 23.3295,2.3721204 C22.3785,2.94860201 21.3285,3.35579933 20.2095,3.58303679 C19.3065,2.60545819 18.0195,2 16.6155,2 C13.8915,2 11.6985,4.24797325 11.6985,7.00379933 C11.6985,7.40032107 11.7315,7.78159197 11.8125,8.14456187 C7.722,7.94172575 4.1025,5.94844147 1.671,2.912 C1.2465,3.66081606 0.997499998,4.51791304 0.997499998,5.44058863 C0.997499998,7.17308361 1.875,8.70884281 3.183,9.59796655 C2.3925,9.58271572 1.617,9.34937792 0.960000001,8.98183277 C0.960000001,8.99708361 0.960000001,9.0169097 0.960000001,9.03673579 C0.960000001,11.4677191 2.6655,13.4869298 4.90200001,13.9520803 C4.50150001,14.0634114 4.065,14.1167893 3.612,14.1167893 C3.297,14.1167893 2.97900001,14.0984883 2.6805,14.0313846 C3.318,16.0124682 5.127,17.4689231 7.278,17.5162007 C5.60400001,18.8475986 3.4785,19.6497927 1.1775,19.6497927 C0.774000001,19.6497927 0.387,19.6314916 0,19.5811639 C2.17950001,21.0101672 4.7625,21.826087 7.548,21.826087 C16.602,21.826087 21.552,14.2006689 21.552,7.59095652 C21.552,7.3698194 21.5445,7.15630769 21.534,6.94432107 C22.5105,6.23973244 23.331,5.3597592 24,4.34710368 Z" id="Path" fill="#888888" fill-rule="nonzero"></path>
    </g>
</svg>